#Comment line ignore any data following # character 
#Hierarchical Translation and Rotation (.htr) file 
[Header]	
#Header keywords are followed by a single value 
FileType HTR		#Single word string
DataType HTRS		#Translation followed by rotation and scale data
FileVersion 1		#integer
NumSegments 64		#integer
NumFrames 3		#integer
DataFrameRate 30		#integer, data frame rate in this file
EulerRotationOrder ZYX
CalibrationUnits mm
RotationUnits Degrees
GlobalAxisofGravity Y
BoneLengthAxis Y
ScaleFactor 1.00
[SegmentNames&Hierarchy]
#CHILD	PARENT
Pinger_Root GLOBAL
Pelvis Pinger_Root
L_Hip Pelvis
R_Hip Pelvis
Rear_Leg01 Pelvis
Spine1 Pelvis
L_Leg01 L_Hip
L_Leg02 L_Leg01
L_Leg03 L_Leg02
L_Foot L_Leg03
L_Toe1_01 L_Foot
L_Toe2_01 L_Foot
L_Toe3_01 L_Foot
planeAlignerLeft L_Foot
L_Toe1_02 L_Toe1_01
L_Toe1_03 L_Toe1_02
L_Toe2_02 L_Toe2_01
L_Toe2_03 L_Toe2_02
L_Toe3_02 L_Toe3_01
L_Toe3_03 L_Toe3_02
planeLockWeightLeft planeAlignerLeft
R_Leg01 R_Hip
R_Leg02 R_Leg01
R_Leg03 R_Leg02
R_Foot R_Leg03
planeAlignerRight R_Foot
R_Toe1_01 R_Foot
R_Toe2_01 R_Foot
R_Toe3_01 R_Foot
planeLockWeightRight planeAlignerRight
R_Toe1_02 R_Toe1_01
R_Toe1_03 R_Toe1_02
R_Toe2_02 R_Toe2_01
R_Toe2_03 R_Toe2_02
R_Toe3_02 R_Toe3_01
R_Toe3_03 R_Toe3_02
Rear_Leg02 Rear_Leg01
Rear_Leg03 Rear_Leg02
Rear_Leg04 Rear_Leg03
Rear_Foot Rear_Leg04
planeAlignerCenter Rear_Foot
Rear_Toe1_01 Rear_Foot
Rear_Toe2_01 Rear_Foot
Rear_Toe3_01 Rear_Foot
planeLockWeightCenter planeAlignerCenter
Rear_Toe1_02 Rear_Toe1_01
Rear_Toe1_03 Rear_Toe1_02
Rear_Toe2_02 Rear_Toe2_01
Rear_Toe2_03 Rear_Toe2_02
Rear_Toe3_02 Rear_Toe3_01
Rear_Toe3_03 Rear_Toe3_02
Back_Bone Spine1
Head Spine1
Motor_Bone Back_Bone
Ping_Mechanism Back_Bone
BN_LookIK Head
bottomMouth Head
L_Mouth01 Head
L_mouthFront Head
mouthGun Head
R_Mouth01 Head
R_mouthFront Head
TopMouth Head
weapon_bone Head
[BasePosition]
#SegmentName Tx, Ty, Tz, Rx, Ry, Rz, BoneLength
Pinger_Root 0.000000 0.000000 0.000000 -90.000000 0.000000 0.000000 10.000000 
Pelvis 0.000000 0.000000 0.000000 0.000000 0.000000 0.000000 10.000000 
L_Hip 0.000000 0.000000 0.000000 0.000000 0.000000 0.000000 10.000000 
R_Hip 0.000000 0.000000 0.000000 0.000000 0.000000 0.000000 10.000000 
Rear_Leg01 0.000000 0.000000 0.000000 0.000000 0.000000 0.000000 10.000000 
Spine1 0.000000 0.000000 0.000000 0.000000 0.000000 0.000000 10.000000 
L_Leg01 0.000000 0.000000 0.000000 0.000000 0.000000 0.000000 10.000000 
L_Leg02 0.000000 0.000000 0.000000 0.000000 0.000000 0.000000 10.000000 
L_Leg03 0.000000 0.000000 0.000000 0.000000 0.000000 0.000000 10.000000 
L_Foot 0.000000 0.000000 0.000000 0.000000 0.000000 0.000000 10.000000 
L_Toe1_01 0.000000 0.000000 0.000000 0.000000 0.000000 0.000000 10.000000 
L_Toe2_01 0.000000 0.000000 0.000000 0.000000 0.000000 0.000000 10.000000 
L_Toe3_01 0.000000 0.000000 0.000000 0.000000 0.000000 0.000000 10.000000 
planeAlignerLeft 0.000000 0.000000 0.000000 0.000000 0.000000 0.000000 10.000000 
L_Toe1_02 0.000000 0.000000 0.000000 0.000000 0.000000 0.000000 10.000000 
L_Toe1_03 0.000000 0.000000 0.000000 0.000000 0.000000 0.000000 10.000000 
L_Toe2_02 0.000000 0.000000 0.000000 0.000000 0.000000 0.000000 10.000000 
L_Toe2_03 0.000000 0.000000 0.000000 0.000000 0.000000 0.000000 10.000000 
L_Toe3_02 0.000000 0.000000 0.000000 0.000000 0.000000 0.000000 10.000000 
L_Toe3_03 0.000000 0.000000 0.000000 0.000000 0.000000 0.000000 10.000000 
planeLockWeightLeft 0.000000 0.000000 0.000000 0.000000 0.000000 0.000000 10.000000 
R_Leg01 0.000000 0.000000 0.000000 0.000000 0.000000 0.000000 10.000000 
R_Leg02 0.000000 0.000000 0.000000 0.000000 0.000000 0.000000 10.000000 
R_Leg03 0.000000 0.000000 0.000000 0.000000 0.000000 0.000000 10.000000 
R_Foot 0.000000 0.000000 0.000000 0.000000 0.000000 0.000000 10.000000 
planeAlignerRight 0.000000 0.000000 0.000000 0.000000 0.000000 0.000000 10.000000 
R_Toe1_01 0.000000 0.000000 0.000000 0.000000 0.000000 0.000000 10.000000 
R_Toe2_01 0.000000 0.000000 0.000000 0.000000 0.000000 0.000000 10.000000 
R_Toe3_01 0.000000 0.000000 0.000000 0.000000 0.000000 0.000000 10.000000 
planeLockWeightRight 0.000000 0.000000 0.000000 0.000000 0.000000 0.000000 10.000000 
R_Toe1_02 0.000000 0.000000 0.000000 0.000000 0.000000 0.000000 10.000000 
R_Toe1_03 0.000000 0.000000 0.000000 0.000000 0.000000 0.000000 10.000000 
R_Toe2_02 0.000000 0.000000 0.000000 0.000000 0.000000 0.000000 10.000000 
R_Toe2_03 0.000000 0.000000 0.000000 0.000000 0.000000 0.000000 10.000000 
R_Toe3_02 0.000000 0.000000 0.000000 0.000000 0.000000 0.000000 10.000000 
R_Toe3_03 0.000000 0.000000 0.000000 0.000000 0.000000 0.000000 10.000000 
Rear_Leg02 0.000000 0.000000 0.000000 0.000000 0.000000 0.000000 10.000000 
Rear_Leg03 0.000000 0.000000 0.000000 0.000000 0.000000 0.000000 10.000000 
Rear_Leg04 0.000000 0.000000 0.000000 0.000000 0.000000 0.000000 10.000000 
Rear_Foot 0.000000 0.000000 0.000000 0.000000 0.000000 0.000000 10.000000 
planeAlignerCenter 0.000000 0.000000 0.000000 0.000000 0.000000 0.000000 10.000000 
Rear_Toe1_01 0.000000 0.000000 0.000000 0.000000 0.000000 0.000000 10.000000 
Rear_Toe2_01 0.000000 0.000000 0.000000 0.000000 0.000000 0.000000 10.000000 
Rear_Toe3_01 0.000000 0.000000 0.000000 0.000000 0.000000 0.000000 10.000000 
planeLockWeightCenter 0.000000 0.000000 0.000000 0.000000 0.000000 0.000000 10.000000 
Rear_Toe1_02 0.000000 0.000000 0.000000 0.000000 0.000000 0.000000 10.000000 
Rear_Toe1_03 0.000000 0.000000 0.000000 0.000000 0.000000 0.000000 10.000000 
Rear_Toe2_02 0.000000 0.000000 0.000000 0.000000 0.000000 0.000000 10.000000 
Rear_Toe2_03 0.000000 0.000000 0.000000 0.000000 0.000000 0.000000 10.000000 
Rear_Toe3_02 0.000000 0.000000 0.000000 0.000000 0.000000 0.000000 10.000000 
Rear_Toe3_03 0.000000 0.000000 0.000000 0.000000 0.000000 0.000000 10.000000 
Back_Bone 0.000000 0.000000 0.000000 0.000000 0.000000 0.000000 10.000000 
Head 0.000000 0.000000 0.000000 0.000000 0.000000 0.000000 10.000000 
Motor_Bone 0.000000 0.000000 0.000000 0.000000 0.000000 0.000000 10.000000 
Ping_Mechanism 0.000000 0.000000 0.000000 0.000000 0.000000 0.000000 10.000000 
BN_LookIK 0.000000 0.000000 0.000000 0.000000 0.000000 0.000000 10.000000 
bottomMouth 0.000000 0.000000 0.000000 0.000000 0.000000 0.000000 10.000000 
L_Mouth01 0.000000 0.000000 0.000000 0.000000 0.000000 0.000000 10.000000 
L_mouthFront 0.000000 0.000000 0.000000 0.000000 0.000000 0.000000 10.000000 
mouthGun 0.000000 0.000000 0.000000 0.000000 0.000000 0.000000 10.000000 
R_Mouth01 0.000000 0.000000 0.000000 0.000000 0.000000 0.000000 10.000000 
R_mouthFront 0.000000 0.000000 0.000000 0.000000 0.000000 0.000000 10.000000 
TopMouth 0.000000 0.000000 0.000000 0.000000 0.000000 0.000000 10.000000 
weapon_bone 0.000000 0.000000 0.000000 0.000000 0.000000 0.000000 10.000000 
#Beginning of Data. Separated by tabs
#Fr	Tx	Ty	Tz	Rx	Ry	Rz	SF
[Pinger_Root]
7 -777.777832 0.000000 0.000000 -0.000075 -0.000000 -0.000020 777.777832
8 -907.407532 0.000000 0.000000 -0.000075 -0.000000 -0.000020 907.407532
9 -1037.037109 0.000000 0.000000 -0.000075 -0.000000 -0.000020 1037.037109
[Pelvis]
7 -854.603943 -237.797318 5233.139160 93.697250 -79.452133 -56.562202 5307.790527
8 -836.000793 -275.526581 5254.626953 90.146614 -76.719551 -52.547657 5327.843262
9 -829.611633 -302.907684 5271.564941 87.296349 -75.563202 -49.116528 5345.035645
[L_Hip]
7 5.766392 125.831482 872.656799 -178.250168 -81.786369 87.376007 881.701050
8 5.766392 125.831482 872.656799 -178.250168 -81.786369 87.376007 881.701050
9 5.766392 125.831482 872.656799 -178.250168 -81.786369 87.376007 881.701050
[R_Hip]
7 5.765438 125.836372 -872.654907 -1.748770 81.786041 87.376961 881.699829
8 5.765438 125.836372 -872.654907 -1.748770 81.786041 87.376961 881.699829
9 5.765438 125.836372 -872.654907 -1.748770 81.786041 87.376961 881.699829
[Rear_Leg01]
7 -192.298416 -925.602966 -0.001907 171.080521 8.914327 -164.317474 945.367432
8 -192.298416 -925.602966 -0.001907 170.279068 5.832516 -159.360626 945.367432
9 -192.298416 -925.602966 -0.001907 170.678726 7.127237 -162.415649 945.367432
[Spine1]
7 290.604584 5.007505 0.000477 -20.407423 13.741579 38.973793 290.647736
8 290.604584 5.007505 0.000477 -20.784813 13.515225 41.971321 290.647736
9 290.604584 5.007505 0.000477 -21.441265 13.305320 43.243607 290.647736
[L_Leg01]
7 761.932007 -0.002384 -0.069261 66.363724 6.732770 -81.267334 761.932068
8 761.932007 -0.002384 -0.069261 66.688469 9.159630 -83.721085 761.932068
9 761.932007 -0.002384 -0.069261 66.794807 10.366650 -86.163689 761.932068
[L_Leg02]
7 1441.140503 -0.000954 -0.000715 -1.227997 0.866889 -92.785011 1441.140503
8 1441.140503 -0.000954 -0.000715 -1.209823 0.885698 -90.919815 1441.140503
9 1441.140503 -0.000954 -0.000715 -1.191036 0.903915 -89.053612 1441.140503
[L_Leg03]
7 1686.963989 -0.000715 -0.000954 0.115672 -0.010706 79.761032 1686.963989
8 1686.963989 -0.000715 -0.000954 0.121251 -0.009974 77.863136 1686.963989
9 1686.963989 -0.000715 -0.000954 0.126802 -0.009058 75.965263 1686.963989
[L_Foot]
7 3041.570068 -30.715107 11.297464 -8.652686 16.138676 92.410362 3041.746094
8 3041.570068 -30.715107 11.297464 -7.285317 16.169121 93.569984 3041.746094
9 3041.570068 -30.715107 11.297464 -5.917226 16.172970 94.730316 3041.746094
[L_Toe1_01]
7 -188.216690 -224.732346 -21.137953 89.496712 -2.549580 -164.259811 293.899567
8 -188.216690 -224.732346 -21.137953 89.440964 -2.312401 -163.971130 293.899567
9 -188.216690 -224.732346 -21.137953 89.400009 -2.165307 -163.475266 293.899567
[L_Toe2_01]
7 200.746536 -219.926590 148.838394 -77.661362 -13.890563 -44.431591 332.896027
8 200.746536 -219.926590 148.838394 -77.705780 -13.749935 -44.400684 332.896027
9 200.746536 -219.926590 148.838394 -77.750069 -13.609276 -44.369892 332.896027
[L_Toe3_01]
7 188.832520 -219.859131 -191.078659 -105.560890 15.695956 -45.769112 347.140900
8 188.832520 -219.859131 -191.078659 -105.696243 16.076763 -45.941441 347.140900
9 188.832520 -219.859131 -191.078659 -105.833023 16.457155 -46.115021 347.140900
[planeAlignerLeft]
7 -28.138414 -614.274658 12.897825 0.000000 -90.000000 -90.001900 615.054077
8 -34.203529 -615.557434 8.367550 0.000000 -90.000000 -90.001900 616.563721
9 -40.268635 -616.840210 3.837278 0.000000 -90.000000 -90.001900 618.165100
[L_Toe1_02]
7 413.761139 0.000477 0.000000 0.001407 -23.072332 0.001407 413.761139
8 413.761139 0.000477 0.000000 0.001405 -23.292667 0.001405 413.761139
9 413.761139 0.000477 0.000000 0.001403 -23.513020 0.001403 413.761139
[L_Toe1_03]
7 464.317322 0.000358 -0.000089 0.011608 78.394966 0.011608 464.317322
8 464.317322 0.000358 -0.000089 0.010614 77.300545 0.010614 464.317322
9 464.317322 0.000358 -0.000089 0.009776 76.205811 0.009776 464.317322
[L_Toe2_02]
7 342.235809 -0.000477 0.000238 0.001180 -78.108490 0.001180 342.235809
8 342.235809 -0.000477 0.000238 0.001180 -78.270103 0.001180 342.235809
9 342.235809 -0.000477 0.000238 0.001180 -78.431694 0.001180 342.235809
[L_Toe2_03]
7 420.210846 -0.000715 0.000000 -179.997360 75.021172 -179.993835 420.210846
8 420.210846 -0.000715 0.000000 -179.997635 74.042152 -179.994095 420.210846
9 420.210846 -0.000715 0.000000 -179.997864 73.063316 -179.994339 420.210846
[L_Toe3_02]
7 329.270111 0.000954 0.000000 0.001177 -81.923790 0.001177 329.270111
8 329.270111 0.000954 0.000000 0.001176 -81.978012 0.001176 329.270111
9 329.270111 0.000954 0.000000 0.001176 -82.032326 0.001176 329.270111
[L_Toe3_03]
7 439.137451 -0.001907 0.000954 -179.998093 71.988327 -179.994553 439.137451
8 439.137451 -0.001907 0.000954 -179.998184 71.588951 -179.994644 439.137451
9 439.137451 -0.001907 0.000954 -179.998260 71.189568 -179.994705 439.137451
[planeLockWeightLeft]
7 999.998779 0.098020 0.076346 -0.011826 -0.004376 0.005620 999.998840
8 999.998779 0.098017 0.076337 -0.011826 -0.004376 0.005620 999.998840
9 999.998779 0.098014 0.076328 -0.011826 -0.004376 0.005620 999.998840
[R_Leg01]
7 761.455627 -0.001907 -0.000358 83.210617 -1.474133 65.137871 761.455688
8 761.455627 -0.001907 -0.000358 81.258041 3.392103 63.619347 761.455688
9 761.455627 -0.001907 -0.000358 79.890228 6.064178 61.829449 761.455688
[R_Leg02]
7 1441.140625 0.000000 -0.000238 0.211766 0.027019 -74.792412 1441.140625
8 1441.140625 0.000000 -0.000238 0.218782 0.037269 -71.314919 1441.140625
9 1441.140625 0.000000 -0.000238 0.220800 0.039522 -68.898270 1441.140625
[R_Leg03]
7 1686.963989 0.000954 0.001431 -0.093611 0.012538 84.990639 1686.963989
8 1686.963989 0.000954 0.001431 -0.099903 0.011848 83.505699 1686.963989
9 1686.963989 0.000954 0.001431 -0.107072 0.009549 81.466690 1686.963989
[R_Foot]
7 3041.560059 -30.531288 -11.204481 31.428556 -23.739334 55.347076 3041.734131
8 3041.560059 -30.531288 -11.204481 32.740540 -24.328379 55.186111 3041.734131
9 3041.560059 -30.531288 -11.204481 34.071770 -25.041502 55.757061 3041.734131
[planeAlignerRight]
7 -23.085941 -817.779297 15.914155 0.000000 -89.960434 -90.005180 818.259888
8 -31.813976 -835.142456 18.041992 0.000000 -89.960434 -90.005180 835.942871
9 -42.194237 -841.729980 18.847044 0.000000 -89.960434 -90.005180 842.997559
[R_Toe1_01]
7 -188.383347 -224.864899 21.052242 91.139381 0.955463 -147.716827 294.101532
8 -188.383347 -224.864899 21.052242 91.165329 0.815815 -145.769180 294.101532
9 -188.383347 -224.864899 21.052242 91.186981 0.749037 -144.699692 294.101532
[R_Toe2_01]
7 200.637817 -220.002121 -148.787384 -104.681274 8.654105 -59.070236 332.857574
8 200.637817 -220.002121 -148.787384 -104.861465 8.377403 -60.269741 332.857574
9 200.637817 -220.002121 -148.787384 -104.978683 8.353739 -60.840984 332.857574
[R_Toe3_01]
7 188.606735 -220.092957 191.126343 -70.325005 -12.312697 -61.417061 347.192566
8 188.606735 -220.092957 191.126343 -69.974068 -12.150999 -62.672039 347.192566
9 188.606735 -220.092957 191.126343 -69.789680 -12.206838 -63.258789 347.192566
[planeLockWeightRight]
7 999.998962 -0.000343 0.075986 -0.011823 -0.004379 -0.000027 999.999023
8 999.998962 -0.000401 0.076007 -0.011823 -0.004379 -0.000027 999.999023
9 999.998779 -0.000458 0.076027 -0.011823 -0.004379 -0.000027 999.998840
[R_Toe1_02]
7 413.762085 0.000477 -0.000119 0.001385 -25.850527 0.001385 413.762085
8 413.762085 0.000477 -0.000119 0.001385 -25.833609 0.001385 413.762085
9 413.762085 0.000477 -0.000119 0.001385 -25.816706 0.001385 413.762085
[R_Toe1_03]
7 464.317810 0.000000 0.001088 0.004358 58.708912 0.004358 464.317810
8 464.317810 0.000000 0.001088 0.003824 54.252003 0.003824 464.317810
9 464.317810 0.000000 0.001088 0.003494 50.744736 0.003494 464.317810
[R_Toe2_02]
7 342.234741 -0.000954 0.000238 0.001189 -71.491440 0.001189 342.234741
8 342.234741 -0.000954 0.000238 0.001190 -71.083679 0.001190 342.234741
9 342.234741 -0.000954 0.000238 0.001189 -71.333099 0.001189 342.234741
[R_Toe2_03]
7 420.210846 0.000715 -0.000268 0.019735 83.181175 0.019735 420.210846
8 420.210846 0.000715 -0.000268 0.017240 82.193047 0.017240 420.210846
9 420.210846 0.000715 -0.000268 0.018669 82.791672 0.018669 420.210846
[R_Toe3_02]
7 329.270355 -0.000477 -0.000954 0.001183 -75.197464 0.001183 329.270355
8 329.270355 -0.000477 -0.000954 0.001184 -74.748711 0.001184 329.270355
9 329.270355 -0.000477 -0.000954 0.001184 -74.923088 0.001184 329.270355
[R_Toe3_03]
7 439.137939 0.000238 0.001431 -0.014995 85.026100 -0.011495 439.137939
8 439.137939 0.000238 0.001431 -0.012501 83.870712 -0.008999 439.137939
9 439.137939 0.000238 0.001431 -0.013358 84.323593 -0.009857 439.137939
[Rear_Leg02]
7 1162.777710 -0.029802 0.005960 22.628546 -10.482126 -118.482445 1162.777710
8 1162.777710 -0.029802 0.005960 15.997079 -16.664244 -104.081314 1162.777710
9 1162.777710 -0.029802 0.005960 14.647542 -15.216330 -110.558281 1162.777710
[Rear_Leg03]
7 607.192505 -0.013351 -0.073195 0.009956 -0.006086 79.227089 607.192505
8 607.192505 -0.013351 -0.073195 0.010186 -0.005692 74.746689 607.192505
9 607.192505 -0.013351 -0.073195 0.010183 -0.005697 74.808952 607.192505
[Rear_Leg04]
7 995.874512 -0.020504 -0.011921 -0.044292 -0.014245 98.500687 995.874573
8 995.874512 -0.020504 -0.011921 -0.045613 -0.016965 82.613815 995.874573
9 995.874512 -0.020504 -0.011921 -0.045639 -0.016894 82.791695 995.874573
[Rear_Foot]
7 3096.176270 -0.067472 -0.041425 -48.979538 58.779400 88.701149 3096.176270
8 3096.176270 -0.067472 -0.041425 -58.263206 64.966499 75.207954 3096.176270
9 3096.176270 -0.067472 -0.041425 -57.002590 66.336494 79.191521 3096.176270
[planeAlignerCenter]
7 5.858381 311.339966 -759.038574 0.000009 0.000003 -179.999985 820.430664
8 1.163025 -126.908897 -930.211243 0.000009 0.000003 -179.999985 938.829163
9 1.159744 -86.898949 -886.456116 0.000009 0.000003 -179.999985 890.705994
[Rear_Toe1_01]
7 0.653352 83.966492 -371.173737 0.083711 39.899185 90.039238 380.553192
8 0.653352 83.966492 -371.173737 0.082493 33.469227 90.035431 380.553192
9 0.653352 83.966492 -371.173737 0.076664 30.707256 90.032593 380.553192
[Rear_Toe2_01]
7 178.200760 -294.826019 -362.060547 121.630424 80.996170 51.015102 499.765686
8 178.200760 -294.826019 -362.060547 -1.665093 50.526596 -74.726311 499.765686
9 178.200760 -294.826019 -362.060547 -1.251848 52.734852 -73.998695 499.765686
[Rear_Toe3_01]
7 -153.359680 -308.780914 -362.060852 -117.576065 80.264229 130.831482 499.952881
8 -153.359680 -308.780914 -362.060852 1.740213 50.594715 -107.171951 499.952881
9 -153.359680 -308.780914 -362.060852 1.259706 52.762440 -107.998001 499.952881
[planeLockWeightCenter]
7 843.750061 0.000305 0.075989 -0.011814 -0.004373 -0.000015 843.750061
8 999.999756 0.000458 0.076370 -0.011814 -0.004373 -0.000015 999.999756
9 999.999756 0.000445 0.076360 -0.011814 -0.004373 -0.000015 999.999756
[Rear_Toe1_02]
7 379.707825 0.194073 0.000477 -0.000767 -33.624729 0.000838 379.707855
8 379.707825 0.194073 0.000477 -0.000767 -33.624729 0.000838 379.707855
9 379.707825 0.194073 0.000477 -0.000767 -33.624729 0.000838 379.707855
[Rear_Toe1_03]
7 500.129700 0.165701 0.000119 0.014355 80.620804 0.014355 500.129761
8 500.129700 0.165701 0.000119 -0.012373 85.335075 -0.015872 500.129761
9 500.129700 0.165701 0.000119 -0.009349 84.063705 -0.012850 500.129761
[Rear_Toe2_02]
7 340.494507 0.000238 -0.000954 179.998825 -86.962234 179.998825 340.494507
8 340.494507 0.000238 -0.000954 0.001262 -46.949574 0.001262 340.494507
9 340.494507 0.000238 -0.000954 0.001217 -59.228600 0.001217 340.494507
[Rear_Toe2_03]
7 433.103577 0.000000 0.000238 -179.996338 53.364685 180.000000 433.103546
8 433.103577 0.000000 0.000238 -0.003308 41.037128 0.000534 433.103546
9 433.103577 0.000000 0.000238 0.003917 55.131752 0.003917 433.103546
[Rear_Toe3_02]
7 340.494141 -0.000358 -0.000477 -179.994171 -87.016853 -179.994171 340.494171
8 340.494141 -0.000358 -0.000477 -0.002496 -47.122173 -0.002496 340.494171
9 340.494141 -0.000358 -0.000477 -0.002409 -59.291206 -0.002409 340.494171
[Rear_Toe3_03]
7 433.103577 0.001431 -0.000238 179.992554 53.724731 179.999908 433.103546
8 433.103577 0.001431 -0.000238 0.000528 41.227295 -0.003312 433.103546
9 433.103577 0.001431 -0.000238 -0.000090 55.209881 -0.003755 433.103546
[Back_Bone]
7 1312.175781 -701.934692 0.000954 -3.264964 -2.253788 -83.843361 1488.125488
8 1312.175781 -701.934692 0.000954 -3.195429 -2.810387 -83.415443 1488.125488
9 1312.175781 -701.934692 0.000954 -3.130025 -3.367467 -82.987991 1488.125488
[Head]
7 1406.159424 809.709290 0.001431 -12.008188 7.019310 -0.294065 1622.625488
8 1406.159424 809.709290 0.001431 -12.399620 6.828348 -0.760901 1622.625488
9 1406.159424 809.709290 0.001431 -12.386122 6.535408 -0.935806 1622.625488
[Motor_Bone]
7 1158.364380 -417.834747 0.000477 -1.034497 -1.094875 -107.077385 1231.419434
8 1158.364380 -417.834747 0.000477 -2.188165 -1.022762 -107.007042 1231.419434
9 1158.364380 -417.834747 0.000477 -2.074372 -0.843159 -106.828514 1231.419434
[Ping_Mechanism]
7 1178.823486 -401.799316 22.959143 0.000103 -0.000053 82.120995 1245.630249
8 1172.727539 -393.059082 32.977150 0.000103 -0.000053 82.120995 1237.284546
9 1171.949097 -389.699097 39.468842 0.000103 -0.000053 82.120995 1235.673096
[BN_LookIK]
7 193.241119 1380.371704 -0.002861 0.000000 89.965736 -31.038179 1393.832153
8 193.241119 1380.371704 -0.002861 0.000000 89.965736 -31.038179 1393.832153
9 193.241119 1380.371704 -0.002861 0.000000 89.965736 -31.038179 1393.832153
[bottomMouth]
7 -435.092926 615.759399 -0.000954 -0.000022 0.000016 73.527184 753.966492
8 -435.092926 615.759399 -0.000954 -0.000022 0.000016 73.527184 753.966492
9 -435.092926 615.759399 -0.000954 -0.000022 0.000016 73.527184 753.966492
[L_Mouth01]
7 554.440979 7.658243 838.222046 150.204178 23.759130 109.605339 1005.027161
8 554.440979 7.658243 838.222046 150.204178 23.759130 109.605339 1005.027161
9 554.440979 7.658243 838.222046 150.204178 23.759130 109.605339 1005.027161
[L_mouthFront]
7 551.629089 934.514771 339.150421 0.000081 2.804060 79.119301 1136.941284
8 551.629089 934.514771 339.150421 0.000081 2.804060 79.119301 1136.941284
9 551.629089 934.514771 339.150421 0.000081 2.804060 79.119301 1136.941284
[mouthGun]
7 55.332661 1627.420898 0.000000 0.000023 0.000009 -11.038128 1628.361328
8 55.332661 1627.420898 0.000000 0.000023 0.000009 -11.038128 1628.361328
9 55.332661 1627.420898 0.000000 0.000023 0.000009 -11.038128 1628.361328
[R_Mouth01]
7 554.442383 7.659197 -838.223938 29.795891 -23.759109 109.605331 1005.029541
8 554.442383 7.659197 -838.223938 29.795891 -23.759109 109.605331 1005.029541
9 554.442383 7.659197 -838.223938 29.795891 -23.759109 109.605331 1005.029541
[R_mouthFront]
7 551.629089 934.514282 -339.151367 0.000029 -2.803930 79.119133 1136.941162
8 551.629089 934.514282 -339.151367 0.000029 -2.803930 79.119133 1136.941162
9 551.629089 934.514282 -339.151367 0.000029 -2.803930 79.119133 1136.941162
[TopMouth]
7 461.269867 -56.106091 -0.008583 -0.000059 -0.000268 92.025169 464.669525
8 461.269867 -56.106091 -0.008583 -0.000059 -0.000268 92.025169 464.669525
9 461.269867 -56.106091 -0.008583 -0.000059 -0.000268 92.025169 464.669525
[weapon_bone]
7 -987.239868 1448.372803 0.001431 0.000000 89.965736 -31.038221 1752.833740
8 -987.239868 1448.372803 0.001431 0.000000 89.965736 -31.038221 1752.833740
9 -987.239868 1448.372803 0.001431 0.000000 89.965736 -31.038221 1752.833740
